<svg xmlns="http://www.w3.org/2000/svg" height="512" viewBox="0 0 64 64" width="512" fill-rule="evenodd" ><path d="M32 64H16A16.001 16.001 0 0 1 0 48V16A16.001 16.001 0 0 1 16 0h32a16 16 0 0 1 16 16v32a16 16 0 0 1-16 16h-6a5 5 0 0 0-10 0z" fill="#3764b9"/><path d="M30 18h18A9.001 9.001 0 0 0 48.92.046L48 0H16A16.001 16.001 0 0 0 0 16v32a30.001 30.001 0 0 1 30-30" fill="#507dd2"/><path d="M48 32a16 16 0 1 0 16 16V16a16 16 0 0 1-16 16" fill="#1e4ba0"/><path d="M52 18a2 2 0 0 1-2 2h-6a2 2 0 0 0-2 2v8h7.56a2 2 0 0 1 1.961 2.392l-1.2 6A2 2 0 0 1 48.36 40H42v24H32V40h-6a2 2 0 0 1-2-2v-6a2 2 0 0 1 2-2h6v-8a12 12 0 0 1 12-12h6a2 2 0 0 1 2 2z" fill="#fff"/></svg>