<svg xmlns="http://www.w3.org/2000/svg" width="48" height="48"><linearGradient id="A" x1="7.534" x2="27.557" y1="7.534" y2="27.557" gradientUnits="userSpaceOnUse"><stop offset="0" stop-color="#f44f5a"/><stop offset=".443" stop-color="#ee3d4a"/><stop offset="1" stop-color="#e52030"/></linearGradient><path fill="url(#A)" d="M42.42 12.401a1.98 1.98 0 0 0 0-2.802L38.401 5.58a1.98 1.98 0 0 0-2.802 0L24 17.179 12.401 5.58a1.98 1.98 0 0 0-2.802 0L5.58 9.599a1.98 1.98 0 0 0 0 2.802L17.179 24 5.58 35.599a1.98 1.98 0 0 0 0 2.802l4.019 4.019a1.98 1.98 0 0 0 2.802 0L42.42 12.401z"/><linearGradient id="B" x1="27.373" x2="40.507" y1="27.373" y2="40.507" gradientUnits="userSpaceOnUse"><stop offset="0" stop-color="#a8142e"/><stop offset=".179" stop-color="#ba1632"/><stop offset=".243" stop-color="#c21734"/></linearGradient><path fill="url(#B)" d="M24 30.821L35.599 42.42a1.98 1.98 0 0 0 2.802 0l4.019-4.019a1.98 1.98 0 0 0 0-2.802L30.821 24 24 30.821z"/></svg>