<svg xmlns="http://www.w3.org/2000/svg" width="48" height="48"><linearGradient id="A" x1="21.241" x2="3.541" y1="39.241" y2="21.541" gradientUnits="userSpaceOnUse"><stop offset=".108" stop-color="#0d7044"/><stop offset=".433" stop-color="#11945a"/></linearGradient><path fill="url(#A)" d="M16.599 41.42L1.58 26.401a1.98 1.98 0 0 1 0-2.802l4.019-4.019a1.98 1.98 0 0 1 2.802 0L23.42 34.599a1.98 1.98 0 0 1 0 2.802l-4.019 4.019c-.774.773-2.028.773-2.802 0z"/><linearGradient id="B" x1="44.41" x2="14.59" y1="9.59" y2="39.411" gradientUnits="userSpaceOnUse"><stop offset="0" stop-color="#2ac782"/><stop offset="1" stop-color="#21b876"/></linearGradient><path fill="url(#B)" d="M12.58 34.599L39.599 7.58a1.98 1.98 0 0 1 2.802 0l4.019 4.019a1.98 1.98 0 0 1 0 2.802L19.401 41.42a1.98 1.98 0 0 1-2.802 0l-4.019-4.019c-.773-.774-.773-2.028 0-2.802z"/></svg>