<svg xmlns="http://www.w3.org/2000/svg" viewBox="0 0 409.6 409.6"><path d="M0 100.265V409.6h119.465V77.865L0 100.265zm85.335 275.2h-51.2v-34.13h51.2v34.13zm0-68.265h-51.2v-34.135h51.2V307.2zm0-68.265h-51.2V204.8h51.2v34.135zm0-68.27h-51.2v-34.13h51.2v34.13zM153.6 0v409.6h256V48l-256-48zM256 375.465h-51.2v-34.13H256v34.13zm0-68.265h-51.2v-34.135H256V307.2zm0-68.265h-51.2V204.8H256v34.135zm0-68.27h-51.2v-34.13H256v34.13zm0-68.265h-51.2V68.265H256V102.4zm102.4 273.065h-51.2v-34.13h51.2v34.13zm0-68.265h-51.2v-34.135h51.2V307.2zm0-68.265h-51.2V204.8h51.2v34.135zm0-68.27h-51.2v-34.13h51.2v34.13z"/></svg>