<svg xmlns="http://www.w3.org/2000/svg" height="512" width="512"><path d="M184.93 511.91c-34 .84-100.63-4.43-122.43-9.61-14.85-3.13-28.82-11.78-39.34-23.81a76.38 76.38 0 0 1-18.71-41.95v-.46a243 243 0 0 1-1.05-33.8s-.83-9.95 1.05-28v-.46a65 65 0 0 1 18.78-39.16 66.18 66.18 0 0 1 39.47-19c21.86-2.31 88.39-3.58 122.21-3.57s88.09 1.25 110 3.57a66.18 66.18 0 0 1 39.47 19 65 65 0 0 1 18.78 39.18c0 .15 0 .3.05.45 1.89 18.07 1.63 28 1.63 28a321.23 321.23 0 0 1-1.63 33.86c0 .15 0 .3-.05.46a76.43 76.43 0 0 1-18.7 42c-10.53 12-24.49 20.67-39.35 23.8-21.86 4.87-76.24 9.73-110.18 9.5z"/><circle cx="176.79" cy="180.97" r="105.71"/><path d="M330.82 0a105.68 105.68 0 0 0-93.93 57.22 137.64 137.64 0 0 1 74.49 152.38A105.7 105.7 0 1 0 330.82 0zm178 327s.26-9.91-1.63-28c0-.16 0-.31-.05-.46a65 65 0 0 0-18.78-39.18 66.18 66.18 0 0 0-39.47-19c-21.86-2.32-76.14-3.58-109.95-3.57l-36.11.31a138.22 138.22 0 0 1-32.78 45.93c11.2.52 21.07 1.15 28.2 1.91a97.77 97.77 0 0 1 86.58 86.62v.2.21a278.91 278.91 0 0 1 1.81 31.61c.06 5.29-.12 17.51-1.28 31.24 25.32-1.82 50.48-4.78 63.69-7.77 14.86-3.13 28.82-11.77 39.35-23.8a76.4 76.4 0 0 0 18.7-41.95c0-.15 0-.31.05-.46a321.23 321.23 0 0 0 1.67-33.84z"/></svg>