<svg xmlns="http://www.w3.org/2000/svg" height="512" width="512"><path d="M386.106 325.923h53.529a13.423 13.423 0 0 0 12.759-9.264l26.457-81.45h-79.2l-13.549 90.714zm42.518 96.692A28.388 28.388 0 1 1 400.236 451a28.387 28.387 0 0 1 28.388-28.387zm-161.243 0A28.388 28.388 0 1 1 238.993 451a28.387 28.387 0 0 1 28.388-28.387zM13.417 59.459h95.007a29.411 29.411 0 0 1 28.356 20.365L180.2 208.36h87.488L254.8 117.645h-76.923l-15.665-46.4a55.963 55.963 0 0 0-53.788-38.635H13.417a13.425 13.425 0 0 0 0 26.849zm359.129 175.75l-9.146 63.865h-.4l-4 26.849h-48.161l-12.189-90.714zm-77.735-26.849l-9.152-63.86h.073l-3.817-26.85h108.457l-13.986 90.71zm-14.146 90.714h-.55l3.607 26.849h-29.993a26.881 26.881 0 1 0 0 53.761h189.645a13.425 13.425 0 0 1 0 26.85H253.729a53.7 53.7 0 0 1-40.79-88.661l3.061-3.566-26.722-79.1h82.259l9.132 63.865zm122.828-90.714l9.142-63.865h.708l4.141-26.85h81.1a13.4 13.4 0 0 1 12.767 17.511l-23.778 73.2h-84.08z" fill-rule="evenodd"/></svg>